<svg xmlns="http://www.w3.org/2000/svg" xmlns:xlink="http://www.w3.org/1999/xlink" version="1.1" x="0px" y="0px" viewBox="0 0 100 125" style="enable-background:new 0 0 100 100;" xml:space="preserve"><g><g><path d="M50,26.2c4.4,0,8.5,1.3,12,3.4l17.1-17.1C71,6.3,61,2.5,50,2.5c-11,0-21,3.8-29.1,10L38,29.6C41.5,27.5,45.6,26.2,50,26.2    z"/><path d="M87.5,20.9L70.4,38c2.1,3.5,3.4,7.6,3.4,12s-1.3,8.5-3.4,12l17.1,17.1c6.3-8,10-18.1,10-29.1S93.7,29,87.5,20.9z"/><path d="M62,70.4c-3.5,2.1-7.6,3.4-12,3.4s-8.5-1.3-12-3.4L20.9,87.5c8,6.3,18.1,10,29.1,10s21-3.8,29.1-10L62,70.4z"/><path d="M26.2,50c0-4.4,1.3-8.5,3.4-12L12.5,20.9C6.3,29,2.5,39,2.5,50c0,11,3.8,21,10,29.1L29.6,62C27.5,58.5,26.2,54.4,26.2,50z    "/></g></g></svg>